<?xml version="1.0" encoding="utf-8"?>
<!-- Generator: Adobe Illustrator 16.0.0, SVG Export Plug-In . SVG Version: 6.00 Build 0)  -->
<!DOCTYPE svg PUBLIC "-//W3C//DTD SVG 1.1//EN" "http://www.w3.org/Graphics/SVG/1.1/DTD/svg11.dtd">
<svg version="1.1" id="Calque_1" xmlns="http://www.w3.org/2000/svg" xmlns:xlink="http://www.w3.org/1999/xlink" x="0px" y="0px"
	 width="120px" height="120px" viewBox="0 0 120 120" enable-background="new 0 0 120 120" xml:space="preserve">
<path fill="#14171B" d="M119,99c0,11-9,20-20,20H21c-11,0-20-9-20-20V21C1,10,10,1,21,1h78c11,0,20,9,20,20V99z"/>
<g>
	<circle fill="#FFFFFF" cx="25" cy="25" r="2"/>
	<circle fill="#FFFFFF" cx="25" cy="60" r="2"/>
	<circle fill="#FFFFFF" cx="25" cy="95" r="2"/>
	<circle fill="#FFFFFF" cx="60" cy="25" r="2"/>
	<circle fill="#FFFFFF" cx="60" cy="60" r="2"/>
	<circle fill="#FFFFFF" cx="60" cy="95" r="2"/>
	<circle fill="#FFFFFF" cx="95" cy="25" r="2"/>
	<circle fill="#FFFFFF" cx="95" cy="60" r="2"/>
	<circle fill="#FFFFFF" cx="95" cy="95" r="2"/>
	<g id="theLock">
		<line fill="none" stroke="#999999" stroke-width="14" stroke-linecap="round" x1="25" y1="25" x2="95" y2="60"/>
		<line fill="none" stroke="#CCCCCC" stroke-width="14" stroke-linecap="round" x1="95" y1="60" x2="25" y2="95"/>
		<line fill="none" stroke="#FFFFFF" stroke-width="14" stroke-linecap="round" x1="25" y1="95" x2="60" y2="25"/>
		<circle fill="#999999" cx="60" cy="25" r="3.5"/>
	</g>
</g>
</svg>
